<svg viewBox="0 0 490 490" fill="none" xmlns="http://www.w3.org/2000/svg">
<path d="M490 245C490 380.31 380.31 490 245 490C109.69 490 0 380.31 0 245C0 109.69 109.69 0 245 0C380.31 0 490 109.69 490 245Z" fill="#87A2E7"/>
<path fill-rule="evenodd" clip-rule="evenodd" d="M245 450C358.218 450 450 358.218 450 245C450 131.782 358.218 40 245 40C131.782 40 40 131.782 40 245C40 358.218 131.782 450 245 450ZM245 470C369.264 470 470 369.264 470 245C470 120.736 369.264 20 245 20C120.736 20 20 120.736 20 245C20 369.264 120.736 470 245 470Z" fill="black"/>
<path d="M182.887 243.53L223.837 240.138L225.835 264.254L153.624 270.236L143 141.982L174.261 139.392L182.887 243.53Z" fill="black"/>
<path d="M359.451 129.763L355.662 216.187C355.076 229.566 350.837 239.706 342.947 246.606C335.177 253.512 324.92 256.685 312.178 256.126C298.834 255.541 288.302 251.275 280.581 243.329C272.859 235.382 269.305 224.417 269.918 210.435L300.572 211.779C300.34 217.083 301.245 221.168 303.287 224.035C305.334 226.782 308.402 228.245 312.489 228.424C316.216 228.587 319.154 227.508 321.303 225.187C323.452 222.866 324.627 219.415 324.828 214.835L328.617 128.411L359.451 129.763Z" fill="black"/>
<path fill-rule="evenodd" clip-rule="evenodd" d="M388.356 297.224C338.375 405.878 207.97 416.233 134.505 348.17L151.495 329.83C214.03 387.767 323.625 378.122 365.644 286.776L388.356 297.224Z" fill="black"/>
</svg>
