<?xml version="1.0" encoding="iso-8859-1"?>
<!-- Generator: Adobe Illustrator 19.0.0, SVG Export Plug-In . SVG Version: 6.00 Build 0)  -->
<svg version="1.1" id="Layer_1" xmlns="http://www.w3.org/2000/svg" xmlns:xlink="http://www.w3.org/1999/xlink" x="0px" y="0px"
	 viewBox="0 0 214.271 214.271" style="enable-background:new 0 0 214.271 214.271;" xml:space="preserve">
<g>
	<g>
		<path d="M214.184,30.418c-0.041-0.212-0.075-0.415-0.15-0.617c-0.029-0.078-0.023-0.159-0.057-0.236
			c-0.081-0.184-0.222-0.316-0.327-0.481c-0.112-0.177-0.207-0.354-0.349-0.512c-0.23-0.257-0.5-0.454-0.784-0.64
			c-0.104-0.068-0.171-0.172-0.283-0.231c-0.024-0.013-0.051-0.01-0.075-0.022c-0.436-0.219-0.903-0.369-1.394-0.414
			c-0.111-0.01-0.215,0.03-0.326,0.029c-0.351-0.002-0.705-0.003-1.056,0.095l-0.112,0.031c-0.004,0.001-0.006,0.002-0.01,0.003
			L2.867,84.093c-1.663,0.457-2.827,1.952-2.866,3.676c-0.034,1.724,1.065,3.265,2.709,3.79l76.745,24.54l0.031,0.046L68.933,164.13
			c-0.331,1.503,0.251,3.056,1.488,3.969c0.685,0.506,1.499,0.765,2.317,0.765c0.658,0,1.321-0.168,1.918-0.502l29.28-16.54
			l22.955,33.493c0.731,1.062,1.933,1.693,3.215,1.693c0.072,0,0.148-0.004,0.224-0.008c1.362-0.076,2.584-0.864,3.219-2.07
			l80.309-151.966c0.051-0.097,0.047-0.203,0.089-0.302c0.119-0.277,0.2-0.556,0.253-0.854c0.036-0.198,0.067-0.385,0.071-0.582
			C214.277,30.953,214.236,30.69,214.184,30.418z M17.582,88.134l168.842-46.363l-105.059,66.76L17.582,88.134z M78.42,157.283
			l7.107-32.325l13.985,20.406L78.42,157.283z M129.676,175.586l-41.854-61.068l0.194-0.885c0.007-0.034-0.005-0.065,0.002-0.099
			l112.093-71.228L129.676,175.586z"/>
	</g>
</g>
<g>
</g>
<g>
</g>
<g>
</g>
<g>
</g>
<g>
</g>
<g>
</g>
<g>
</g>
<g>
</g>
<g>
</g>
<g>
</g>
<g>
</g>
<g>
</g>
<g>
</g>
<g>
</g>
<g>
</g>
</svg>
