<svg width="450" height="450" viewBox="0 0 450 450" fill="none" xmlns="http://www.w3.org/2000/svg">
<path fill-rule="evenodd" clip-rule="evenodd" d="M225 430C338.218 430 430 338.218 430 225C430 111.782 338.218 20 225 20C111.782 20 20 111.782 20 225C20 338.218 111.782 430 225 430ZM225 450C349.264 450 450 349.264 450 225C450 100.736 349.264 0 225 0C100.736 0 0 100.736 0 225C0 349.264 100.736 450 225 450Z" fill="#87A2E7"/>
<path d="M162.887 223.53L203.837 220.138L205.834 244.254L133.624 250.236L123 121.982L154.261 119.392L162.887 223.53Z" fill="#87A2E7"/>
<path d="M339.451 109.763L335.662 196.187C335.076 209.566 330.837 219.706 322.947 226.606C315.177 233.512 304.92 236.685 292.178 236.126C278.834 235.541 268.302 231.275 260.581 223.329C252.859 215.382 249.305 204.417 249.918 190.435L280.572 191.779C280.34 197.083 281.245 201.168 283.287 204.035C285.334 206.782 288.402 208.245 292.489 208.424C296.216 208.587 299.154 207.508 301.303 205.187C303.452 202.866 304.627 199.415 304.828 194.835L308.617 108.411L339.451 109.763Z" fill="#87A2E7"/>
<path fill-rule="evenodd" clip-rule="evenodd" d="M368.356 277.224C318.375 385.878 187.97 396.233 114.505 328.17L131.495 309.83C194.03 367.767 303.625 358.122 345.644 266.776L368.356 277.224Z" fill="#87A2E7"/>
</svg>
